<svg width="424" height="221" viewBox="0 0 424 221" fill="none" xmlns="http://www.w3.org/2000/svg">
<path fill-rule="evenodd" clip-rule="evenodd" d="M0 0H424V221H0V0ZM0.849335 0.849767V16.9346H16.926V0.849767H0.849335ZM17.7754 0.849767V16.9346H33.8521V0.849767H17.7754ZM34.7014 0.849767V16.9346H50.7781V0.849767H34.7014ZM51.6274 0.849767V16.9346H67.7041V0.849767H51.6274ZM68.5534 0.849767V16.9346H84.6301V0.849767H68.5534ZM85.4795 0.849767V16.9346H101.556V0.849767H85.4795ZM102.405 0.849767V16.9346H118.482V0.849767H102.405ZM119.332 0.849767V16.9346H135.408V0.849767H119.332ZM136.258 0.849767V16.9346H152.334V0.849767H136.258ZM153.184 0.849767V16.9346H169.26V0.849767H153.184ZM170.11 0.849767V16.9346H186.186V0.849767H170.11ZM187.036 0.849767V16.9346H203.112V0.849767H187.036ZM203.962 0.849767V16.9346H220.038V0.849767H203.962ZM220.888 0.849767V16.9346H236.964V0.849767H220.888ZM237.814 0.849767V16.9346H253.89V0.849767H237.814ZM254.74 0.849767V16.9346H270.816V0.849767H254.74ZM271.666 0.849767V16.9346H287.742V0.849767H271.666ZM288.592 0.849767V16.9346H304.668V0.849767H288.592ZM305.518 0.849767V16.9346H321.595V0.849767H305.518ZM322.444 0.849767V16.9346H338.521V0.849767H322.444ZM339.37 0.849767V16.9346H355.447V0.849767H339.37ZM356.296 0.849767V16.9346H372.373V0.849767H356.296ZM373.222 0.849767V16.9346H389.299V0.849767H373.222ZM390.148 0.849767V16.9346H406.225V0.849767H390.148ZM407.074 0.849767V16.9346H423.151V0.849767H407.074ZM423.151 17.7844H407.074V33.8693H423.151V17.7844ZM423.151 34.719H407.074V50.8039H423.151V34.719ZM423.151 51.6537H407.074V67.7385H423.151V51.6537ZM423.151 68.5883H407.074V84.6732H423.151V68.5883ZM423.151 85.5229H407.074V101.608H423.151V85.5229ZM423.151 102.458H407.074V118.542H423.151V102.458ZM423.151 119.392H407.074V135.477H423.151V119.392ZM423.151 136.327H407.074V152.412H423.151V136.327ZM423.151 153.261H407.074V169.346H423.151V153.261ZM423.151 170.196H407.074V186.281H423.151V170.196ZM423.151 187.131H407.074V203.216H423.151V187.131ZM423.151 204.065H407.074V220.15H423.151V204.065ZM406.225 220.15V204.065H390.148V220.15H406.225ZM389.299 220.15V204.065H373.222V220.15H389.299ZM372.373 220.15V204.065H356.296V220.15H372.373ZM355.447 220.15V204.065H339.37V220.15H355.447ZM338.521 220.15V204.065H322.444V220.15H338.521ZM321.595 220.15V204.065H305.518V220.15H321.595ZM304.668 220.15V204.065H288.592V220.15H304.668ZM287.742 220.15V204.065H271.666V220.15H287.742ZM270.816 220.15V204.065H254.74V220.15H270.816ZM253.89 220.15V204.065H237.814V220.15H253.89ZM236.964 220.15V204.065H220.888V220.15H236.964ZM220.038 220.15V204.065H203.962V220.15H220.038ZM203.112 220.15V204.065H187.036V220.15H203.112ZM186.186 220.15V204.065H170.11V220.15H186.186ZM169.26 220.15V204.065H153.184V220.15H169.26ZM152.334 220.15V204.065H136.258V220.15H152.334ZM135.408 220.15V204.065H119.332V220.15H135.408ZM118.482 220.15V204.065H102.405V220.15H118.482ZM101.556 220.15V204.065H85.4795V220.15H101.556ZM84.6301 220.15V204.065H68.5534V220.15H84.6301ZM67.7041 220.15V204.065H51.6274V220.15H67.7041ZM50.7781 220.15V204.065H34.7014V220.15H50.7781ZM33.8521 220.15V204.065H17.7754V220.15H33.8521ZM16.926 220.15V204.065H0.849335V220.15H16.926ZM0.849335 203.216H16.926V187.131H0.849335V203.216ZM0.849335 186.281H16.926V170.196H0.849335V186.281ZM0.849335 169.346H16.926V153.261H0.849335V169.346ZM0.849335 152.412H16.926V136.327H0.849335V152.412ZM0.849335 135.477H16.926V119.392H0.849335V135.477ZM0.849335 118.542H16.926V102.458H0.849335V118.542ZM0.849335 101.608H16.926V85.5229H0.849335V101.608ZM0.849335 84.6732H16.926V68.5883H0.849335V84.6732ZM0.849335 67.7385H16.926V51.6537H0.849335V67.7385ZM0.849335 50.8039H16.926V34.719H0.849335V50.8039ZM0.849335 33.8693H16.926V17.7844H0.849335V33.8693ZM17.7754 17.7844V33.8693H33.8521V17.7844H17.7754ZM34.7014 17.7844V33.8693H50.7781V17.7844H34.7014ZM51.6274 17.7844V33.8693H67.7041V17.7844H51.6274ZM68.5534 17.7844V33.8693H84.6301V17.7844H68.5534ZM85.4795 17.7844V33.8693H101.556V17.7844H85.4795ZM102.405 17.7844V33.8693H118.482V17.7844H102.405ZM119.332 17.7844V33.8693H135.408V17.7844H119.332ZM136.258 17.7844V33.8693H152.334V17.7844H136.258ZM153.184 17.7844V33.8693H169.26V17.7844H153.184ZM170.11 17.7844V33.8693H186.186V17.7844H170.11ZM187.036 17.7844V33.8693H203.112V17.7844H187.036ZM203.962 17.7844V33.8693H220.038V17.7844H203.962ZM220.888 17.7844V33.8693H236.964V17.7844H220.888ZM237.814 17.7844V33.8693H253.89V17.7844H237.814ZM254.74 17.7844V33.8693H270.816V17.7844H254.74ZM271.666 17.7844V33.8693H287.742V17.7844H271.666ZM288.592 17.7844V33.8693H304.668V17.7844H288.592ZM305.518 17.7844V33.8693H321.595V17.7844H305.518ZM322.444 17.7844V33.8693H338.521V17.7844H322.444ZM339.37 17.7844V33.8693H355.447V17.7844H339.37ZM356.296 17.7844V33.8693H372.373V17.7844H356.296ZM373.222 17.7844V33.8693H389.299V17.7844H373.222ZM390.148 17.7844V33.8693H406.225V17.7844H390.148ZM406.225 34.719H390.148V50.8039H406.225V34.719ZM406.225 51.6537H390.148V67.7385H406.225V51.6537ZM406.225 68.5883H390.148V84.6732H406.225V68.5883ZM406.225 85.5229H390.148V101.608H406.225V85.5229ZM406.225 102.458H390.148V118.542H406.225V102.458ZM406.225 119.392H390.148V135.477H406.225V119.392ZM406.225 136.327H390.148V152.412H406.225V136.327ZM406.225 153.261H390.148V169.346H406.225V153.261ZM406.225 170.196H390.148V186.281H406.225V170.196ZM406.225 187.131H390.148V203.216H406.225V187.131ZM389.299 203.216V187.131H373.222V203.216H389.299ZM372.373 203.216V187.131H356.296V203.216H372.373ZM355.447 203.216V187.131H339.37V203.216H355.447ZM338.521 203.216V187.131H322.444V203.216H338.521ZM321.595 203.216V187.131H305.518V203.216H321.595ZM304.668 203.216V187.131H288.592V203.216H304.668ZM287.742 203.216V187.131H271.666V203.216H287.742ZM270.816 203.216V187.131H254.74V203.216H270.816ZM253.89 203.216V187.131H237.814V203.216H253.89ZM236.964 203.216V187.131H220.888V203.216H236.964ZM220.038 203.216V187.131H203.962V203.216H220.038ZM203.112 203.216V187.131H187.036V203.216H203.112ZM186.186 203.216V187.131H170.11V203.216H186.186ZM169.26 203.216V187.131H153.184V203.216H169.26ZM152.334 203.216V187.131H136.258V203.216H152.334ZM135.408 203.216V187.131H119.332V203.216H135.408ZM118.482 203.216V187.131H102.405V203.216H118.482ZM101.556 203.216V187.131H85.4795V203.216H101.556ZM84.6301 203.216V187.131H68.5534V203.216H84.6301ZM67.7041 203.216V187.131H51.6274V203.216H67.7041ZM50.7781 203.216V187.131H34.7014V203.216H50.7781ZM33.8521 203.216V187.131H17.7754V203.216H33.8521ZM17.7754 186.281H33.8521V170.196H17.7754V186.281ZM17.7754 169.346H33.8521V153.261H17.7754V169.346ZM17.7754 152.412H33.8521V136.327H17.7754V152.412ZM17.7754 135.477H33.8521V119.392H17.7754V135.477ZM17.7754 118.542H33.8521V102.458H17.7754V118.542ZM17.7754 101.608H33.8521V85.5229H17.7754V101.608ZM17.7754 84.6732H33.8521V68.5883H17.7754V84.6732ZM17.7754 67.7385H33.8521V51.6537H17.7754V67.7385ZM17.7754 50.8039H33.8521V34.719H17.7754V50.8039ZM34.7014 34.719V50.8039H50.7781V34.719H34.7014ZM51.6274 34.719V50.8039H67.7041V34.719H51.6274ZM68.5534 34.719V50.8039H84.6301V34.719H68.5534ZM85.4795 34.719V50.8039H101.556V34.719H85.4795ZM102.405 34.719V50.8039H118.482V34.719H102.405ZM119.332 34.719V50.8039H135.408V34.719H119.332ZM136.258 34.719V50.8039H152.334V34.719H136.258ZM153.184 34.719V50.8039H169.26V34.719H153.184ZM170.11 34.719V50.8039H186.186V34.719H170.11ZM187.036 34.719V50.8039H203.112V34.719H187.036ZM203.962 34.719V50.8039H220.038V34.719H203.962ZM220.888 34.719V50.8039H236.964V34.719H220.888ZM237.814 34.719V50.8039H253.89V34.719H237.814ZM254.74 34.719V50.8039H270.816V34.719H254.74ZM271.666 34.719V50.8039H287.742V34.719H271.666ZM288.592 34.719V50.8039H304.668V34.719H288.592ZM305.518 34.719V50.8039H321.595V34.719H305.518ZM322.444 34.719V50.8039H338.521V34.719H322.444ZM339.37 34.719V50.8039H355.447V34.719H339.37ZM356.296 34.719V50.8039H372.373V34.719H356.296ZM373.222 34.719V50.8039H389.299V34.719H373.222ZM389.299 51.6537H373.222V67.7385H389.299V51.6537ZM389.299 68.5883H373.222V84.6732H389.299V68.5883ZM389.299 85.5229H373.222V101.608H389.299V85.5229ZM389.299 102.458H373.222V118.542H389.299V102.458ZM389.299 119.392H373.222V135.477H389.299V119.392ZM389.299 136.327H373.222V152.412H389.299V136.327ZM389.299 153.261H373.222V169.346H389.299V153.261ZM389.299 170.196H373.222V186.281H389.299V170.196ZM372.373 186.281V170.196H356.296V186.281H372.373ZM355.447 186.281V170.196H339.37V186.281H355.447ZM338.521 186.281V170.196H322.444V186.281H338.521ZM321.595 186.281V170.196H305.518V186.281H321.595ZM304.668 186.281V170.196H288.592V186.281H304.668ZM287.742 186.281V170.196H271.666V186.281H287.742ZM270.816 186.281V170.196H254.74V186.281H270.816ZM253.89 186.281V170.196H237.814V186.281H253.89ZM236.964 186.281V170.196H220.888V186.281H236.964ZM220.038 186.281V170.196H203.962V186.281H220.038ZM203.112 186.281V170.196H187.036V186.281H203.112ZM186.186 186.281V170.196H170.11V186.281H186.186ZM169.26 186.281V170.196H153.184V186.281H169.26ZM152.334 186.281V170.196H136.258V186.281H152.334ZM135.408 186.281V170.196H119.332V186.281H135.408ZM118.482 186.281V170.196H102.405V186.281H118.482ZM101.556 186.281V170.196H85.4795V186.281H101.556ZM84.6301 186.281V170.196H68.5534V186.281H84.6301ZM67.7041 186.281V170.196H51.6274V186.281H67.7041ZM50.7781 186.281V170.196H34.7014V186.281H50.7781ZM34.7014 169.346H50.7781V153.261H34.7014V169.346ZM34.7014 152.412H50.7781V136.327H34.7014V152.412ZM34.7014 135.477H50.7781V119.392H34.7014V135.477ZM34.7014 118.542H50.7781V102.458H34.7014V118.542ZM34.7014 101.608H50.7781V85.5229H34.7014V101.608ZM34.7014 84.6732H50.7781V68.5883H34.7014V84.6732ZM34.7014 67.7385H50.7781V51.6537H34.7014V67.7385ZM51.6274 51.6537V67.7385H67.7041V51.6537H51.6274ZM68.5534 51.6537V67.7385H84.6301V51.6537H68.5534ZM85.4795 51.6537V67.7385H101.556V51.6537H85.4795ZM102.405 51.6537V67.7385H118.482V51.6537H102.405ZM119.332 51.6537V67.7385H135.408V51.6537H119.332ZM136.258 51.6537V67.7385H152.334V51.6537H136.258ZM153.184 51.6537V67.7385H169.26V51.6537H153.184ZM170.11 51.6537V67.7385H186.186V51.6537H170.11ZM187.036 51.6537V67.7385H203.112V51.6537H187.036ZM203.962 51.6537V67.7385H220.038V51.6537H203.962ZM220.888 51.6537V67.7385H236.964V51.6537H220.888ZM237.814 51.6537V67.7385H253.89V51.6537H237.814ZM254.74 51.6537V67.7385H270.816V51.6537H254.74ZM271.666 51.6537V67.7385H287.742V51.6537H271.666ZM288.592 51.6537V67.7385H304.668V51.6537H288.592ZM305.518 51.6537V67.7385H321.595V51.6537H305.518ZM322.444 51.6537V67.7385H338.521V51.6537H322.444ZM339.37 51.6537V67.7385H355.447V51.6537H339.37ZM356.296 51.6537V67.7385H372.373V51.6537H356.296ZM372.373 68.5883H356.296V84.6732H372.373V68.5883ZM372.373 85.5229H356.296V101.608H372.373V85.5229ZM372.373 102.458H356.296V118.542H372.373V102.458ZM372.373 119.392H356.296V135.477H372.373V119.392ZM372.373 136.327H356.296V152.412H372.373V136.327ZM372.373 153.261H356.296V169.346H372.373V153.261ZM355.447 169.346V153.261H339.37V169.346H355.447ZM338.521 169.346V153.261H322.444V169.346H338.521ZM321.595 169.346V153.261H305.518V169.346H321.595ZM304.668 169.346V153.261H288.592V169.346H304.668ZM287.742 169.346V153.261H271.666V169.346H287.742ZM270.816 169.346V153.261H254.74V169.346H270.816ZM253.89 169.346V153.261H237.814V169.346H253.89ZM236.964 169.346V153.261H220.888V169.346H236.964ZM220.038 169.346V153.261H203.962V169.346H220.038ZM203.112 169.346V153.261H187.036V169.346H203.112ZM186.186 169.346V153.261H170.11V169.346H186.186ZM169.26 169.346V153.261H153.184V169.346H169.26ZM152.334 169.346V153.261H136.258V169.346H152.334ZM135.408 169.346V153.261H119.332V169.346H135.408ZM118.482 169.346V153.261H102.405V169.346H118.482ZM101.556 169.346V153.261H85.4795V169.346H101.556ZM84.6301 169.346V153.261H68.5534V169.346H84.6301ZM67.7041 169.346V153.261H51.6274V169.346H67.7041ZM51.6274 152.412H67.7041V136.327H51.6274V152.412ZM51.6274 135.477H67.7041V119.392H51.6274V135.477ZM51.6274 118.542H67.7041V102.458H51.6274V118.542ZM51.6274 101.608H67.7041V85.5229H51.6274V101.608ZM51.6274 84.6732H67.7041V68.5883H51.6274V84.6732ZM68.5534 68.5883V84.6732H84.6301V68.5883H68.5534ZM85.4795 68.5883V84.6732H101.556V68.5883H85.4795ZM102.405 68.5883V84.6732H118.482V68.5883H102.405ZM119.332 68.5883V84.6732H135.408V68.5883H119.332ZM136.258 68.5883V84.6732H152.334V68.5883H136.258ZM153.184 68.5883V84.6732H169.26V68.5883H153.184ZM170.11 68.5883V84.6732H186.186V68.5883H170.11ZM187.036 68.5883V84.6732H203.112V68.5883H187.036ZM203.962 68.5883V84.6732H220.038V68.5883H203.962ZM220.888 68.5883V84.6732H236.964V68.5883H220.888ZM237.814 68.5883V84.6732H253.89V68.5883H237.814ZM254.74 68.5883V84.6732H270.816V68.5883H254.74ZM271.666 68.5883V84.6732H287.742V68.5883H271.666ZM288.592 68.5883V84.6732H304.668V68.5883H288.592ZM305.518 68.5883V84.6732H321.595V68.5883H305.518ZM322.444 68.5883V84.6732H338.521V68.5883H322.444ZM339.37 68.5883V84.6732H355.447V68.5883H339.37ZM355.447 85.5229H339.37V101.608H355.447V85.5229ZM355.447 102.458H339.37V118.542H355.447V102.458ZM355.447 119.392H339.37V135.477H355.447V119.392ZM355.447 136.327H339.37V152.412H355.447V136.327ZM338.521 152.412V136.327H322.444V152.412H338.521ZM321.595 152.412V136.327H305.518V152.412H321.595ZM304.668 152.412V136.327H288.592V152.412H304.668ZM287.742 152.412V136.327H271.666V152.412H287.742ZM270.816 152.412V136.327H254.74V152.412H270.816ZM253.89 152.412V136.327H237.814V152.412H253.89ZM236.964 152.412V136.327H220.888V152.412H236.964ZM220.038 152.412V136.327H203.962V152.412H220.038ZM203.112 152.412V136.327H187.036V152.412H203.112ZM186.186 152.412V136.327H170.11V152.412H186.186ZM169.26 152.412V136.327H153.184V152.412H169.26ZM152.334 152.412V136.327H136.258V152.412H152.334ZM135.408 152.412V136.327H119.332V152.412H135.408ZM118.482 152.412V136.327H102.405V152.412H118.482ZM101.556 152.412V136.327H85.4795V152.412H101.556ZM84.6301 152.412V136.327H68.5534V152.412H84.6301ZM68.5534 135.477H84.6301V119.392H68.5534V135.477ZM68.5534 118.542H84.6301V102.458H68.5534V118.542ZM68.5534 101.608H84.6301V85.5229H68.5534V101.608ZM85.4795 85.5229V101.608H101.556V85.5229H85.4795ZM102.405 85.5229V101.608H118.482V85.5229H102.405ZM119.332 85.5229V101.608H135.408V85.5229H119.332ZM136.258 85.5229V101.608H152.334V85.5229H136.258ZM153.184 85.5229V101.608H169.26V85.5229H153.184ZM170.11 85.5229V101.608H186.186V85.5229H170.11ZM187.036 85.5229V101.608H203.112V85.5229H187.036ZM203.962 85.5229V101.608H220.038V85.5229H203.962ZM220.888 85.5229V101.608H236.964V85.5229H220.888ZM237.814 85.5229V101.608H253.89V85.5229H237.814ZM254.74 85.5229V101.608H270.816V85.5229H254.74ZM271.666 85.5229V101.608H287.742V85.5229H271.666ZM288.592 85.5229V101.608H304.668V85.5229H288.592ZM305.518 85.5229V101.608H321.595V85.5229H305.518ZM322.444 85.5229V101.608H338.521V85.5229H322.444ZM338.521 102.458H322.444V118.542H338.521V102.458ZM338.521 119.392H322.444V135.477H338.521V119.392ZM321.595 135.477V119.392H305.518V135.477H321.595ZM304.668 135.477V119.392H288.592V135.477H304.668ZM287.742 135.477V119.392H271.666V135.477H287.742ZM270.816 135.477V119.392H254.74V135.477H270.816ZM253.89 135.477V119.392H237.814V135.477H253.89ZM236.964 135.477V119.392H220.888V135.477H236.964ZM220.038 135.477V119.392H203.962V135.477H220.038ZM203.112 135.477V119.392H187.036V135.477H203.112ZM186.186 135.477V119.392H170.11V135.477H186.186ZM169.26 135.477V119.392H153.184V135.477H169.26ZM152.334 135.477V119.392H136.258V135.477H152.334ZM135.408 135.477V119.392H119.332V135.477H135.408ZM118.482 135.477V119.392H102.405V135.477H118.482ZM101.556 135.477V119.392H85.4795V135.477H101.556ZM85.4795 118.542H101.556V102.458H85.4795V118.542ZM102.405 102.458V118.542H118.482V102.458H102.405ZM119.332 102.458V118.542H135.408V102.458H119.332ZM136.258 102.458V118.542H152.334V102.458H136.258ZM153.184 102.458V118.542H169.26V102.458H153.184ZM170.11 102.458V118.542H186.186V102.458H170.11ZM187.036 102.458V118.542H203.112V102.458H187.036ZM203.962 102.458V118.542H220.038V102.458H203.962ZM220.888 102.458V118.542H236.964V102.458H220.888ZM237.814 102.458V118.542H253.89V102.458H237.814ZM254.74 102.458V118.542H270.816V102.458H254.74ZM271.666 102.458V118.542H287.742V102.458H271.666ZM288.592 102.458V118.542H304.668V102.458H288.592ZM305.518 102.458V118.542H321.595V102.458H305.518Z" fill="url(#paint0_radial_47_50)"/>
<defs>
<radialGradient id="paint0_radial_47_50" cx="0" cy="0" r="1" gradientUnits="userSpaceOnUse" gradientTransform="translate(209.669 57.3372) rotate(90) scale(129.039 247.569)">
<stop stop-color="#E6E6E6"/>
<stop offset="1" stop-color="#E6E6E6" stop-opacity="0"/>
</radialGradient>
</defs>
</svg>
