<svg width="703" height="917" viewBox="0 0 703 917" fill="none" xmlns="http://www.w3.org/2000/svg">
<path fill-rule="evenodd" clip-rule="evenodd" d="M710 -2L710 1360L1.50025e-06 1360L6.10352e-05 -2.00003L710 -2ZM707.27 0.728287L655.595 0.728285L655.595 52.3709L707.27 52.3709L707.27 0.728287ZM707.27 55.0992L655.595 55.0992L655.595 106.742L707.27 106.742L707.27 55.0992ZM707.27 109.47L655.595 109.47L655.595 161.113L707.27 161.113L707.27 109.47ZM707.27 163.841L655.595 163.841L655.595 215.483L707.27 215.483L707.27 163.841ZM707.27 218.212L655.595 218.212L655.595 269.854L707.27 269.854L707.27 218.212ZM707.27 272.583L655.595 272.583L655.595 324.225L707.27 324.225L707.27 272.583ZM707.27 326.953L655.595 326.953L655.595 378.596L707.27 378.596L707.27 326.953ZM707.27 381.324L655.595 381.324L655.595 432.967L707.27 432.967L707.27 381.324ZM707.27 435.695L655.595 435.695L655.595 487.338L707.27 487.338L707.27 435.695ZM707.27 490.066L655.595 490.066L655.595 541.709L707.27 541.709L707.27 490.066ZM707.27 544.437L655.595 544.437L655.595 596.08L707.27 596.08L707.27 544.437ZM707.27 598.808L655.595 598.808L655.595 650.45L707.27 650.45L707.27 598.808ZM707.27 653.179L655.595 653.179L655.595 704.821L707.27 704.821L707.27 653.179ZM707.27 707.55L655.595 707.55L655.595 759.192L707.27 759.192L707.27 707.55ZM707.27 761.92L655.595 761.92L655.595 813.563L707.27 813.563L707.27 761.92ZM707.27 816.291L655.595 816.291L655.595 867.934L707.27 867.934L707.27 816.291ZM707.27 870.662L655.595 870.662L655.595 922.305L707.27 922.305L707.27 870.662ZM707.27 925.033L655.595 925.033L655.595 976.676L707.27 976.676L707.27 925.033ZM707.27 979.404L655.595 979.404L655.595 1031.05L707.27 1031.05L707.27 979.404ZM707.27 1033.77L655.595 1033.77L655.595 1085.42L707.27 1085.42L707.27 1033.77ZM707.27 1088.15L655.595 1088.15L655.595 1139.79L707.27 1139.79L707.27 1088.15ZM707.27 1142.52L655.595 1142.52L655.595 1194.16L707.27 1194.16L707.27 1142.52ZM707.27 1196.89L655.595 1196.89L655.595 1248.53L707.27 1248.53L707.27 1196.89ZM707.27 1251.26L655.595 1251.26L655.595 1302.9L707.27 1302.9L707.27 1251.26ZM707.27 1305.63L655.595 1305.63L655.595 1357.27L707.27 1357.27L707.27 1305.63ZM652.865 1357.27L652.865 1305.63L601.189 1305.63L601.189 1357.27L652.865 1357.27ZM598.459 1357.27L598.459 1305.63L546.784 1305.63L546.784 1357.27L598.459 1357.27ZM544.054 1357.27L544.054 1305.63L492.378 1305.63L492.378 1357.27L544.054 1357.27ZM489.648 1357.27L489.648 1305.63L437.973 1305.63L437.973 1357.27L489.648 1357.27ZM435.243 1357.27L435.243 1305.63L383.568 1305.63L383.568 1357.27L435.243 1357.27ZM380.838 1357.27L380.838 1305.63L329.162 1305.63L329.162 1357.27L380.838 1357.27ZM326.432 1357.27L326.432 1305.63L274.757 1305.63L274.757 1357.27L326.432 1357.27ZM272.027 1357.27L272.027 1305.63L220.352 1305.63L220.352 1357.27L272.027 1357.27ZM217.621 1357.27L217.621 1305.63L165.946 1305.63L165.946 1357.27L217.621 1357.27ZM163.216 1357.27L163.216 1305.63L111.541 1305.63L111.541 1357.27L163.216 1357.27ZM108.811 1357.27L108.811 1305.63L57.1354 1305.63L57.1354 1357.27L108.811 1357.27ZM54.4053 1357.27L54.4053 1305.63L2.72998 1305.63L2.72998 1357.27L54.4053 1357.27ZM2.72998 1302.9L54.4053 1302.9L54.4053 1251.26L2.72999 1251.26L2.72998 1302.9ZM2.72999 1248.53L54.4053 1248.53L54.4053 1196.89L2.72999 1196.89L2.72999 1248.53ZM2.72999 1194.16L54.4053 1194.16L54.4053 1142.52L2.72999 1142.52L2.72999 1194.16ZM2.72999 1139.79L54.4053 1139.79L54.4053 1088.15L2.72999 1088.15L2.72999 1139.79ZM2.72999 1085.42L54.4053 1085.42L54.4054 1033.77L2.73 1033.77L2.72999 1085.42ZM2.73 1031.05L54.4054 1031.05L54.4054 979.404L2.73 979.404L2.73 1031.05ZM2.73 976.676L54.4054 976.676L54.4054 925.033L2.73 925.033L2.73 976.676ZM2.73 922.305L54.4054 922.305L54.4054 870.662L2.73 870.662L2.73 922.305ZM2.73 867.934L54.4054 867.934L54.4054 816.291L2.73001 816.291L2.73 867.934ZM2.73001 813.563L54.4054 813.563L54.4054 761.92L2.73001 761.92L2.73001 813.563ZM2.73001 759.192L54.4054 759.192L54.4054 707.55L2.73001 707.55L2.73001 759.192ZM2.73001 704.821L54.4054 704.821L54.4054 653.179L2.73001 653.179L2.73001 704.821ZM2.73001 650.45L54.4054 650.45L54.4054 598.808L2.73002 598.808L2.73001 650.45ZM2.73002 596.079L54.4054 596.08L54.4054 544.437L2.73002 544.437L2.73002 596.079ZM2.73002 541.709L54.4054 541.709L54.4054 490.066L2.73002 490.066L2.73002 541.709ZM2.73002 487.338L54.4054 487.338L54.4054 435.695L2.73002 435.695L2.73002 487.338ZM2.73002 432.967L54.4054 432.967L54.4054 381.324L2.73002 381.324L2.73002 432.967ZM2.73002 378.596L54.4054 378.596L54.4054 326.953L2.73003 326.953L2.73002 378.596ZM2.73003 324.225L54.4054 324.225L54.4054 272.583L2.73003 272.583L2.73003 324.225ZM2.73003 269.854L54.4054 269.854L54.4054 218.212L2.73003 218.212L2.73003 269.854ZM2.73003 215.483L54.4054 215.483L54.4054 163.841L2.73003 163.841L2.73003 215.483ZM2.73003 161.113L54.4054 161.113L54.4054 109.47L2.73004 109.47L2.73003 161.113ZM2.73004 106.742L54.4054 106.742L54.4054 55.0991L2.73004 55.0991L2.73004 106.742ZM2.73004 52.3708L54.4054 52.3708L54.4054 0.728259L2.73004 0.728257L2.73004 52.3708ZM57.1354 0.728259L57.1354 52.3708L108.811 52.3708L108.811 0.728261L57.1354 0.728259ZM111.541 0.728261L111.541 52.3708L163.216 52.3708L163.216 0.728264L111.541 0.728261ZM165.946 0.728264L165.946 52.3708L217.622 52.3708L217.622 0.728266L165.946 0.728264ZM220.352 0.728266L220.352 52.3708L272.027 52.3708L272.027 0.728268L220.352 0.728266ZM274.757 0.728268L274.757 52.3708L326.432 52.3709L326.432 0.728271L274.757 0.728268ZM329.162 0.728271L329.162 52.3709L380.838 52.3709L380.838 0.728273L329.162 0.728271ZM383.568 0.728273L383.568 52.3709L435.243 52.3709L435.243 0.728275L383.568 0.728273ZM437.973 0.728276L437.973 52.3709L489.648 52.3709L489.648 0.728278L437.973 0.728276ZM492.378 0.728278L492.378 52.3709L544.054 52.3709L544.054 0.72828L492.378 0.728278ZM546.784 0.72828L546.784 52.3709L598.459 52.3709L598.459 0.728283L546.784 0.72828ZM601.189 0.728283L601.189 52.3709L652.865 52.3709L652.865 0.728285L601.189 0.728283ZM652.865 55.0992L601.189 55.0992L601.189 106.742L652.865 106.742L652.865 55.0992ZM652.865 109.47L601.189 109.47L601.189 161.113L652.865 161.113L652.865 109.47ZM652.865 163.841L601.189 163.841L601.189 215.483L652.865 215.483L652.865 163.841ZM652.865 218.212L601.189 218.212L601.189 269.854L652.865 269.854L652.865 218.212ZM652.865 272.583L601.189 272.583L601.189 324.225L652.865 324.225L652.865 272.583ZM652.865 326.953L601.189 326.953L601.189 378.596L652.865 378.596L652.865 326.953ZM652.865 381.324L601.189 381.324L601.189 432.967L652.865 432.967L652.865 381.324ZM652.865 435.695L601.189 435.695L601.189 487.338L652.865 487.338L652.865 435.695ZM652.865 490.066L601.189 490.066L601.189 541.709L652.865 541.709L652.865 490.066ZM652.865 544.437L601.189 544.437L601.189 596.08L652.865 596.08L652.865 544.437ZM652.865 598.808L601.189 598.808L601.189 650.45L652.865 650.45L652.865 598.808ZM652.865 653.179L601.189 653.179L601.189 704.821L652.865 704.821L652.865 653.179ZM652.865 707.55L601.189 707.55L601.189 759.192L652.865 759.192L652.865 707.55ZM652.865 761.92L601.189 761.92L601.189 813.563L652.865 813.563L652.865 761.92ZM652.865 816.291L601.189 816.291L601.189 867.934L652.865 867.934L652.865 816.291ZM652.865 870.662L601.189 870.662L601.189 922.305L652.865 922.305L652.865 870.662ZM652.865 925.033L601.189 925.033L601.189 976.676L652.865 976.676L652.865 925.033ZM652.865 979.404L601.189 979.404L601.189 1031.05L652.865 1031.05L652.865 979.404ZM652.865 1033.77L601.189 1033.77L601.189 1085.42L652.865 1085.42L652.865 1033.77ZM652.865 1088.15L601.189 1088.15L601.189 1139.79L652.865 1139.79L652.865 1088.15ZM652.865 1142.52L601.189 1142.52L601.189 1194.16L652.865 1194.16L652.865 1142.52ZM652.865 1196.89L601.189 1196.89L601.189 1248.53L652.865 1248.53L652.865 1196.89ZM652.865 1251.26L601.189 1251.26L601.189 1302.9L652.865 1302.9L652.865 1251.26ZM598.459 1302.9L598.459 1251.26L546.784 1251.26L546.784 1302.9L598.459 1302.9ZM544.054 1302.9L544.054 1251.26L492.378 1251.26L492.378 1302.9L544.054 1302.9ZM489.648 1302.9L489.648 1251.26L437.973 1251.26L437.973 1302.9L489.648 1302.9ZM435.243 1302.9L435.243 1251.26L383.568 1251.26L383.568 1302.9L435.243 1302.9ZM380.838 1302.9L380.838 1251.26L329.162 1251.26L329.162 1302.9L380.838 1302.9ZM326.432 1302.9L326.432 1251.26L274.757 1251.26L274.757 1302.9L326.432 1302.9ZM272.027 1302.9L272.027 1251.26L220.352 1251.26L220.352 1302.9L272.027 1302.9ZM217.621 1302.9L217.621 1251.26L165.946 1251.26L165.946 1302.9L217.621 1302.9ZM163.216 1302.9L163.216 1251.26L111.541 1251.26L111.541 1302.9L163.216 1302.9ZM108.811 1302.9L108.811 1251.26L57.1354 1251.26L57.1354 1302.9L108.811 1302.9ZM57.1354 1248.53L108.811 1248.53L108.811 1196.89L57.1354 1196.89L57.1354 1248.53ZM57.1354 1194.16L108.811 1194.16L108.811 1142.52L57.1354 1142.52L57.1354 1194.16ZM57.1354 1139.79L108.811 1139.79L108.811 1088.15L57.1354 1088.15L57.1354 1139.79ZM57.1354 1085.42L108.811 1085.42L108.811 1033.77L57.1354 1033.77L57.1354 1085.42ZM57.1354 1031.05L108.811 1031.05L108.811 979.404L57.1354 979.404L57.1354 1031.05ZM57.1354 976.676L108.811 976.676L108.811 925.033L57.1354 925.033L57.1354 976.676ZM57.1354 922.305L108.811 922.305L108.811 870.662L57.1354 870.662L57.1354 922.305ZM57.1354 867.934L108.811 867.934L108.811 816.291L57.1354 816.291L57.1354 867.934ZM57.1354 813.563L108.811 813.563L108.811 761.92L57.1354 761.92L57.1354 813.563ZM57.1354 759.192L108.811 759.192L108.811 707.55L57.1354 707.55L57.1354 759.192ZM57.1354 704.821L108.811 704.821L108.811 653.179L57.1354 653.179L57.1354 704.821ZM57.1354 650.45L108.811 650.45L108.811 598.808L57.1354 598.808L57.1354 650.45ZM57.1354 596.08L108.811 596.08L108.811 544.437L57.1354 544.437L57.1354 596.08ZM57.1354 541.709L108.811 541.709L108.811 490.066L57.1354 490.066L57.1354 541.709ZM57.1354 487.338L108.811 487.338L108.811 435.695L57.1354 435.695L57.1354 487.338ZM57.1354 432.967L108.811 432.967L108.811 381.324L57.1354 381.324L57.1354 432.967ZM57.1354 378.596L108.811 378.596L108.811 326.953L57.1354 326.953L57.1354 378.596ZM57.1354 324.225L108.811 324.225L108.811 272.583L57.1354 272.583L57.1354 324.225ZM57.1354 269.854L108.811 269.854L108.811 218.212L57.1354 218.212L57.1354 269.854ZM57.1354 215.483L108.811 215.483L108.811 163.841L57.1354 163.841L57.1354 215.483ZM57.1354 161.113L108.811 161.113L108.811 109.47L57.1354 109.47L57.1354 161.113ZM57.1354 106.742L108.811 106.742L108.811 55.0991L57.1354 55.0991L57.1354 106.742ZM111.541 55.0991L111.541 106.742L163.216 106.742L163.216 55.0991L111.541 55.0991ZM165.946 55.0991L165.946 106.742L217.622 106.742L217.622 55.0991L165.946 55.0991ZM220.352 55.0991L220.352 106.742L272.027 106.742L272.027 55.0991L220.352 55.0991ZM274.757 55.0991L274.757 106.742L326.432 106.742L326.432 55.0991L274.757 55.0991ZM329.162 55.0991L329.162 106.742L380.838 106.742L380.838 55.0991L329.162 55.0991ZM383.568 55.0991L383.568 106.742L435.243 106.742L435.243 55.0991L383.568 55.0991ZM437.973 55.0991L437.973 106.742L489.648 106.742L489.648 55.0991L437.973 55.0991ZM492.378 55.0991L492.378 106.742L544.054 106.742L544.054 55.0991L492.378 55.0991ZM546.784 55.0991L546.784 106.742L598.459 106.742L598.459 55.0992L546.784 55.0991ZM598.459 109.47L546.784 109.47L546.784 161.113L598.459 161.113L598.459 109.47ZM598.459 163.841L546.784 163.841L546.784 215.483L598.459 215.483L598.459 163.841ZM598.459 218.212L546.784 218.212L546.784 269.854L598.459 269.854L598.459 218.212ZM598.459 272.583L546.784 272.583L546.784 324.225L598.459 324.225L598.459 272.583ZM598.459 326.953L546.784 326.953L546.784 378.596L598.459 378.596L598.459 326.953ZM598.459 381.324L546.784 381.324L546.784 432.967L598.459 432.967L598.459 381.324ZM598.459 435.695L546.784 435.695L546.784 487.338L598.459 487.338L598.459 435.695ZM598.459 490.066L546.784 490.066L546.784 541.709L598.459 541.709L598.459 490.066ZM598.459 544.437L546.784 544.437L546.784 596.08L598.459 596.08L598.459 544.437ZM598.459 598.808L546.784 598.808L546.784 650.45L598.459 650.45L598.459 598.808ZM598.459 653.179L546.784 653.179L546.784 704.821L598.459 704.821L598.459 653.179ZM598.459 707.55L546.784 707.55L546.784 759.192L598.459 759.192L598.459 707.55ZM598.459 761.92L546.784 761.92L546.784 813.563L598.459 813.563L598.459 761.92ZM598.459 816.291L546.784 816.291L546.784 867.934L598.459 867.934L598.459 816.291ZM598.459 870.662L546.784 870.662L546.784 922.305L598.459 922.305L598.459 870.662ZM598.459 925.033L546.784 925.033L546.784 976.676L598.459 976.676L598.459 925.033ZM598.459 979.404L546.784 979.404L546.784 1031.05L598.459 1031.05L598.459 979.404ZM598.459 1033.77L546.784 1033.77L546.784 1085.42L598.459 1085.42L598.459 1033.77ZM598.459 1088.15L546.784 1088.15L546.784 1139.79L598.459 1139.79L598.459 1088.15ZM598.459 1142.52L546.784 1142.52L546.784 1194.16L598.459 1194.16L598.459 1142.52ZM598.459 1196.89L546.784 1196.89L546.784 1248.53L598.459 1248.53L598.459 1196.89ZM544.054 1248.53L544.054 1196.89L492.378 1196.89L492.378 1248.53L544.054 1248.53ZM489.648 1248.53L489.648 1196.89L437.973 1196.89L437.973 1248.53L489.648 1248.53ZM435.243 1248.53L435.243 1196.89L383.568 1196.89L383.568 1248.53L435.243 1248.53ZM380.838 1248.53L380.838 1196.89L329.162 1196.89L329.162 1248.53L380.838 1248.53ZM326.432 1248.53L326.432 1196.89L274.757 1196.89L274.757 1248.53L326.432 1248.53ZM272.027 1248.53L272.027 1196.89L220.352 1196.89L220.352 1248.53L272.027 1248.53ZM217.621 1248.53L217.621 1196.89L165.946 1196.89L165.946 1248.53L217.621 1248.53ZM163.216 1248.53L163.216 1196.89L111.541 1196.89L111.541 1248.53L163.216 1248.53ZM111.541 1194.16L163.216 1194.16L163.216 1142.52L111.541 1142.52L111.541 1194.16ZM111.541 1139.79L163.216 1139.79L163.216 1088.15L111.541 1088.15L111.541 1139.79ZM111.541 1085.42L163.216 1085.42L163.216 1033.77L111.541 1033.77L111.541 1085.42ZM111.541 1031.05L163.216 1031.05L163.216 979.404L111.541 979.404L111.541 1031.05ZM111.541 976.676L163.216 976.676L163.216 925.033L111.541 925.033L111.541 976.676ZM111.541 922.305L163.216 922.305L163.216 870.662L111.541 870.662L111.541 922.305ZM111.541 867.934L163.216 867.934L163.216 816.291L111.541 816.291L111.541 867.934ZM111.541 813.563L163.216 813.563L163.216 761.92L111.541 761.92L111.541 813.563ZM111.541 759.192L163.216 759.192L163.216 707.55L111.541 707.55L111.541 759.192ZM111.541 704.821L163.216 704.821L163.216 653.179L111.541 653.179L111.541 704.821ZM111.541 650.45L163.216 650.45L163.216 598.808L111.541 598.808L111.541 650.45ZM111.541 596.08L163.216 596.08L163.216 544.437L111.541 544.437L111.541 596.08ZM111.541 541.709L163.216 541.709L163.216 490.066L111.541 490.066L111.541 541.709ZM111.541 487.338L163.216 487.338L163.216 435.695L111.541 435.695L111.541 487.338ZM111.541 432.967L163.216 432.967L163.216 381.324L111.541 381.324L111.541 432.967ZM111.541 378.596L163.216 378.596L163.216 326.953L111.541 326.953L111.541 378.596ZM111.541 324.225L163.216 324.225L163.216 272.583L111.541 272.583L111.541 324.225ZM111.541 269.854L163.216 269.854L163.216 218.212L111.541 218.212L111.541 269.854ZM111.541 215.483L163.216 215.483L163.216 163.841L111.541 163.841L111.541 215.483ZM111.541 161.113L163.216 161.113L163.216 109.47L111.541 109.47L111.541 161.113ZM165.946 109.47L165.946 161.113L217.622 161.113L217.622 109.47L165.946 109.47ZM220.352 109.47L220.352 161.113L272.027 161.113L272.027 109.47L220.352 109.47ZM274.757 109.47L274.757 161.113L326.432 161.113L326.432 109.47L274.757 109.47ZM329.162 109.47L329.162 161.113L380.838 161.113L380.838 109.47L329.162 109.47ZM383.568 109.47L383.568 161.113L435.243 161.113L435.243 109.47L383.568 109.47ZM437.973 109.47L437.973 161.113L489.648 161.113L489.648 109.47L437.973 109.47ZM492.378 109.47L492.378 161.113L544.054 161.113L544.054 109.47L492.378 109.47ZM544.054 163.841L492.378 163.841L492.378 215.483L544.054 215.483L544.054 163.841ZM544.054 218.212L492.378 218.212L492.378 269.854L544.054 269.854L544.054 218.212ZM544.054 272.583L492.378 272.583L492.378 324.225L544.054 324.225L544.054 272.583ZM544.054 326.953L492.378 326.953L492.378 378.596L544.054 378.596L544.054 326.953ZM544.054 381.324L492.378 381.324L492.378 432.967L544.054 432.967L544.054 381.324ZM544.054 435.695L492.378 435.695L492.378 487.338L544.054 487.338L544.054 435.695ZM544.054 490.066L492.378 490.066L492.378 541.709L544.054 541.709L544.054 490.066ZM544.054 544.437L492.378 544.437L492.378 596.08L544.054 596.08L544.054 544.437ZM544.054 598.808L492.378 598.808L492.378 650.45L544.054 650.45L544.054 598.808ZM544.054 653.179L492.378 653.179L492.378 704.821L544.054 704.821L544.054 653.179ZM544.054 707.55L492.378 707.55L492.378 759.192L544.054 759.192L544.054 707.55ZM544.054 761.92L492.378 761.92L492.378 813.563L544.054 813.563L544.054 761.92ZM544.054 816.291L492.378 816.291L492.378 867.934L544.054 867.934L544.054 816.291ZM544.054 870.662L492.378 870.662L492.378 922.305L544.054 922.305L544.054 870.662ZM544.054 925.033L492.378 925.033L492.378 976.676L544.054 976.676L544.054 925.033ZM544.054 979.404L492.378 979.404L492.378 1031.05L544.054 1031.05L544.054 979.404ZM544.054 1033.77L492.378 1033.77L492.378 1085.42L544.054 1085.42L544.054 1033.77ZM544.054 1088.15L492.378 1088.15L492.378 1139.79L544.054 1139.79L544.054 1088.15ZM544.054 1142.52L492.378 1142.52L492.378 1194.16L544.054 1194.16L544.054 1142.52ZM489.648 1194.16L489.648 1142.52L437.973 1142.52L437.973 1194.16L489.648 1194.16ZM435.243 1194.16L435.243 1142.52L383.568 1142.52L383.568 1194.16L435.243 1194.16ZM380.838 1194.16L380.838 1142.52L329.162 1142.52L329.162 1194.16L380.838 1194.16ZM326.432 1194.16L326.432 1142.52L274.757 1142.52L274.757 1194.16L326.432 1194.16ZM272.027 1194.16L272.027 1142.52L220.352 1142.52L220.352 1194.16L272.027 1194.16ZM217.621 1194.16L217.622 1142.52L165.946 1142.52L165.946 1194.16L217.621 1194.16ZM165.946 1139.79L217.622 1139.79L217.622 1088.15L165.946 1088.15L165.946 1139.79ZM165.946 1085.42L217.622 1085.42L217.622 1033.77L165.946 1033.77L165.946 1085.42ZM165.946 1031.05L217.622 1031.05L217.622 979.404L165.946 979.404L165.946 1031.05ZM165.946 976.676L217.622 976.676L217.622 925.033L165.946 925.033L165.946 976.676ZM165.946 922.305L217.622 922.305L217.622 870.662L165.946 870.662L165.946 922.305ZM165.946 867.934L217.622 867.934L217.622 816.291L165.946 816.291L165.946 867.934ZM165.946 813.563L217.622 813.563L217.622 761.92L165.946 761.92L165.946 813.563ZM165.946 759.192L217.622 759.192L217.622 707.55L165.946 707.55L165.946 759.192ZM165.946 704.821L217.622 704.821L217.622 653.179L165.946 653.179L165.946 704.821ZM165.946 650.45L217.622 650.45L217.622 598.808L165.946 598.808L165.946 650.45ZM165.946 596.08L217.622 596.08L217.622 544.437L165.946 544.437L165.946 596.08ZM165.946 541.709L217.622 541.709L217.622 490.066L165.946 490.066L165.946 541.709ZM165.946 487.338L217.622 487.338L217.622 435.695L165.946 435.695L165.946 487.338ZM165.946 432.967L217.622 432.967L217.622 381.324L165.946 381.324L165.946 432.967ZM165.946 378.596L217.622 378.596L217.622 326.953L165.946 326.953L165.946 378.596ZM165.946 324.225L217.622 324.225L217.622 272.583L165.946 272.583L165.946 324.225ZM165.946 269.854L217.622 269.854L217.622 218.212L165.946 218.212L165.946 269.854ZM165.946 215.483L217.622 215.483L217.622 163.841L165.946 163.841L165.946 215.483ZM220.352 163.841L220.352 215.483L272.027 215.483L272.027 163.841L220.352 163.841ZM274.757 163.841L274.757 215.483L326.432 215.483L326.432 163.841L274.757 163.841ZM329.162 163.841L329.162 215.483L380.838 215.483L380.838 163.841L329.162 163.841ZM383.568 163.841L383.568 215.483L435.243 215.483L435.243 163.841L383.568 163.841ZM437.973 163.841L437.973 215.483L489.648 215.483L489.648 163.841L437.973 163.841ZM489.648 218.212L437.973 218.212L437.973 269.854L489.648 269.854L489.648 218.212ZM489.648 272.583L437.973 272.583L437.973 324.225L489.648 324.225L489.648 272.583ZM489.648 326.953L437.973 326.953L437.973 378.596L489.648 378.596L489.648 326.953ZM489.648 381.324L437.973 381.324L437.973 432.967L489.648 432.967L489.648 381.324ZM489.648 435.695L437.973 435.695L437.973 487.338L489.648 487.338L489.648 435.695ZM489.648 490.066L437.973 490.066L437.973 541.709L489.648 541.709L489.648 490.066ZM489.648 544.437L437.973 544.437L437.973 596.08L489.648 596.08L489.648 544.437ZM489.648 598.808L437.973 598.808L437.973 650.45L489.648 650.45L489.648 598.808ZM489.648 653.179L437.973 653.179L437.973 704.821L489.648 704.821L489.648 653.179ZM489.648 707.55L437.973 707.55L437.973 759.192L489.648 759.192L489.648 707.55ZM489.648 761.92L437.973 761.92L437.973 813.563L489.648 813.563L489.648 761.92ZM489.648 816.291L437.973 816.291L437.973 867.934L489.648 867.934L489.648 816.291ZM489.648 870.662L437.973 870.662L437.973 922.305L489.648 922.305L489.648 870.662ZM489.648 925.033L437.973 925.033L437.973 976.676L489.648 976.676L489.648 925.033ZM489.648 979.404L437.973 979.404L437.973 1031.05L489.648 1031.05L489.648 979.404ZM489.648 1033.77L437.973 1033.77L437.973 1085.42L489.648 1085.42L489.648 1033.77ZM489.648 1088.15L437.973 1088.15L437.973 1139.79L489.648 1139.79L489.648 1088.15ZM435.243 1139.79L435.243 1088.15L383.568 1088.15L383.568 1139.79L435.243 1139.79ZM380.838 1139.79L380.838 1088.15L329.162 1088.15L329.162 1139.79L380.838 1139.79ZM326.432 1139.79L326.432 1088.15L274.757 1088.15L274.757 1139.79L326.432 1139.79ZM272.027 1139.79L272.027 1088.15L220.352 1088.15L220.352 1139.79L272.027 1139.79ZM220.352 1085.42L272.027 1085.42L272.027 1033.77L220.352 1033.77L220.352 1085.42ZM220.352 1031.05L272.027 1031.05L272.027 979.404L220.352 979.404L220.352 1031.05ZM220.352 976.676L272.027 976.676L272.027 925.033L220.352 925.033L220.352 976.676ZM220.352 922.305L272.027 922.305L272.027 870.662L220.352 870.662L220.352 922.305ZM220.352 867.934L272.027 867.934L272.027 816.291L220.352 816.291L220.352 867.934ZM220.352 813.563L272.027 813.563L272.027 761.92L220.352 761.92L220.352 813.563ZM220.352 759.192L272.027 759.192L272.027 707.55L220.352 707.55L220.352 759.192ZM220.352 704.821L272.027 704.821L272.027 653.179L220.352 653.179L220.352 704.821ZM220.352 650.45L272.027 650.45L272.027 598.808L220.352 598.808L220.352 650.45ZM220.352 596.08L272.027 596.08L272.027 544.437L220.352 544.437L220.352 596.08ZM220.352 541.709L272.027 541.709L272.027 490.066L220.352 490.066L220.352 541.709ZM220.352 487.338L272.027 487.338L272.027 435.695L220.352 435.695L220.352 487.338ZM220.352 432.967L272.027 432.967L272.027 381.324L220.352 381.324L220.352 432.967ZM220.352 378.596L272.027 378.596L272.027 326.953L220.352 326.953L220.352 378.596ZM220.352 324.225L272.027 324.225L272.027 272.583L220.352 272.583L220.352 324.225ZM220.352 269.854L272.027 269.854L272.027 218.212L220.352 218.212L220.352 269.854ZM274.757 218.212L274.757 269.854L326.432 269.854L326.432 218.212L274.757 218.212ZM329.162 218.212L329.162 269.854L380.838 269.854L380.838 218.212L329.162 218.212ZM383.568 218.212L383.568 269.854L435.243 269.854L435.243 218.212L383.568 218.212ZM435.243 272.583L383.568 272.583L383.568 324.225L435.243 324.225L435.243 272.583ZM435.243 326.953L383.568 326.953L383.568 378.596L435.243 378.596L435.243 326.953ZM435.243 381.324L383.568 381.324L383.568 432.967L435.243 432.967L435.243 381.324ZM435.243 435.695L383.568 435.695L383.568 487.338L435.243 487.338L435.243 435.695ZM435.243 490.066L383.568 490.066L383.568 541.709L435.243 541.709L435.243 490.066ZM435.243 544.437L383.568 544.437L383.568 596.08L435.243 596.08L435.243 544.437ZM435.243 598.808L383.568 598.808L383.568 650.45L435.243 650.45L435.243 598.808ZM435.243 653.179L383.568 653.179L383.568 704.821L435.243 704.821L435.243 653.179ZM435.243 707.55L383.568 707.55L383.568 759.192L435.243 759.192L435.243 707.55ZM435.243 761.92L383.568 761.92L383.568 813.563L435.243 813.563L435.243 761.92ZM435.243 816.291L383.568 816.291L383.568 867.934L435.243 867.934L435.243 816.291ZM435.243 870.662L383.568 870.662L383.568 922.305L435.243 922.305L435.243 870.662ZM435.243 925.033L383.568 925.033L383.568 976.676L435.243 976.676L435.243 925.033ZM435.243 979.404L383.568 979.404L383.568 1031.05L435.243 1031.05L435.243 979.404ZM435.243 1033.77L383.568 1033.77L383.568 1085.42L435.243 1085.42L435.243 1033.77ZM380.838 1085.42L380.838 1033.77L329.162 1033.77L329.162 1085.42L380.838 1085.42ZM326.432 1085.42L326.432 1033.77L274.757 1033.77L274.757 1085.42L326.432 1085.42ZM274.757 1031.05L326.432 1031.05L326.432 979.404L274.757 979.404L274.757 1031.05ZM274.757 976.676L326.432 976.676L326.432 925.033L274.757 925.033L274.757 976.676ZM274.757 922.305L326.432 922.305L326.432 870.662L274.757 870.662L274.757 922.305ZM274.757 867.934L326.432 867.934L326.432 816.291L274.757 816.291L274.757 867.934ZM274.757 813.563L326.432 813.563L326.432 761.92L274.757 761.92L274.757 813.563ZM274.757 759.192L326.432 759.192L326.432 707.55L274.757 707.55L274.757 759.192ZM274.757 704.821L326.432 704.821L326.432 653.179L274.757 653.179L274.757 704.821ZM274.757 650.45L326.432 650.45L326.432 598.808L274.757 598.808L274.757 650.45ZM274.757 596.08L326.432 596.08L326.432 544.437L274.757 544.437L274.757 596.08ZM274.757 541.709L326.432 541.709L326.432 490.066L274.757 490.066L274.757 541.709ZM274.757 487.338L326.432 487.338L326.432 435.695L274.757 435.695L274.757 487.338ZM274.757 432.967L326.432 432.967L326.432 381.324L274.757 381.324L274.757 432.967ZM274.757 378.596L326.432 378.596L326.432 326.953L274.757 326.953L274.757 378.596ZM274.757 324.225L326.432 324.225L326.432 272.583L274.757 272.583L274.757 324.225ZM329.162 272.583L329.162 324.225L380.838 324.225L380.838 272.583L329.162 272.583ZM380.838 326.953L329.162 326.953L329.162 378.596L380.838 378.596L380.838 326.953ZM380.838 381.324L329.162 381.324L329.162 432.967L380.838 432.967L380.838 381.324ZM380.838 435.695L329.162 435.695L329.162 487.338L380.838 487.338L380.838 435.695ZM380.838 490.066L329.162 490.066L329.162 541.709L380.838 541.709L380.838 490.066ZM380.838 544.437L329.162 544.437L329.162 596.08L380.838 596.08L380.838 544.437ZM380.838 598.808L329.162 598.808L329.162 650.45L380.838 650.45L380.838 598.808ZM380.838 653.179L329.162 653.179L329.162 704.821L380.838 704.821L380.838 653.179ZM380.838 707.55L329.162 707.55L329.162 759.192L380.838 759.192L380.838 707.55ZM380.838 761.92L329.162 761.92L329.162 813.563L380.838 813.563L380.838 761.92ZM380.838 816.291L329.162 816.291L329.162 867.934L380.838 867.934L380.838 816.291ZM380.838 870.662L329.162 870.662L329.162 922.305L380.838 922.305L380.838 870.662ZM380.838 925.033L329.162 925.033L329.162 976.676L380.838 976.676L380.838 925.033ZM380.838 979.404L329.162 979.404L329.162 1031.05L380.838 1031.05L380.838 979.404Z" fill="url(#paint0_radial_41_88)" fill-opacity="0.07"/>
<defs>
<radialGradient id="paint0_radial_41_88" cx="0" cy="0" r="1" gradientUnits="userSpaceOnUse" gradientTransform="translate(525.794 671.512) rotate(-180) scale(414.561 795.257)">
<stop stop-color="#E6E6E6"/>
<stop offset="1" stop-color="#E6E6E6" stop-opacity="0"/>
</radialGradient>
</defs>
</svg>
